<svg width="35" height="35" viewBox="0 0 35 35" fill="none" xmlns="http://www.w3.org/2000/svg">
<g clip-path="url(#clip0_5_49)">
<path d="M17.5078 9.63867C12.5391 9.63867 8.53124 13.1455 8.53124 17.4932C8.53124 21.8408 12.5391 25.3476 17.5078 25.3476C22.4765 25.3476 26.4844 21.8408 26.4844 17.4932C26.4844 13.1455 22.4765 9.63867 17.5078 9.63867ZM17.5078 22.5996C14.2969 22.5996 11.6719 20.3096 11.6719 17.4932C11.6719 14.6768 14.2891 12.3867 17.5078 12.3867C20.7266 12.3867 23.3437 14.6768 23.3437 17.4932C23.3437 20.3096 20.7187 22.5996 17.5078 22.5996ZM28.9453 9.31738C28.9453 10.3359 28.0078 11.1494 26.8515 11.1494C25.6875 11.1494 24.7578 10.3291 24.7578 9.31738C24.7578 8.30566 25.6953 7.48535 26.8515 7.48535C28.0078 7.48535 28.9453 8.30566 28.9453 9.31738ZM34.8906 11.1768C34.7578 8.72265 34.1172 6.54883 32.0625 4.75781C30.0156 2.9668 27.5312 2.40625 24.7265 2.2832C21.8359 2.13965 13.1719 2.13965 10.2812 2.2832C7.48437 2.39941 5 2.95996 2.94531 4.75098C0.890625 6.54199 0.257812 8.71582 0.117187 11.1699C-0.046875 13.6992 -0.046875 21.2803 0.117187 23.8096C0.25 26.2637 0.890625 28.4375 2.94531 30.2285C5 32.0195 7.47656 32.5801 10.2812 32.7031C13.1719 32.8467 21.8359 32.8467 24.7265 32.7031C27.5312 32.5869 30.0156 32.0264 32.0625 30.2285C34.1094 28.4375 34.75 26.2637 34.8906 23.8096C35.0547 21.2803 35.0547 13.706 34.8906 11.1768ZM31.1562 26.5234C30.5469 27.8633 29.3672 28.8955 27.8281 29.4355C25.5234 30.2353 20.0547 30.0508 17.5078 30.0508C14.9609 30.0508 9.48437 30.2285 7.1875 29.4355C5.65625 28.9023 4.47656 27.8701 3.85937 26.5234C2.94531 24.5068 3.15625 19.7217 3.15625 17.4932C3.15625 15.2646 2.95312 10.4727 3.85937 8.46289C4.46875 7.12304 5.64843 6.09082 7.1875 5.55078C9.49218 4.75098 14.9609 4.93555 17.5078 4.93555C20.0547 4.93555 25.5312 4.75781 27.8281 5.55078C29.3594 6.08398 30.539 7.11621 31.1562 8.46289C32.0703 10.4795 31.8594 15.2646 31.8594 17.4932C31.8594 19.7217 32.0703 24.5137 31.1562 26.5234Z" fill="white"/>
</g>
<defs>
<clipPath id="clip0_5_49">
<rect width="35" height="35" rx="7.5" fill="white"/>
</clipPath>
</defs>
</svg>
